<?xml version="1.0" encoding="UTF-8" standalone="no"?>
<svg
   xmlns:dc="http://purl.org/dc/elements/1.1/"
   xmlns:cc="http://creativecommons.org/ns#"
   xmlns:rdf="http://www.w3.org/1999/02/22-rdf-syntax-ns#"
   xmlns:svg="http://www.w3.org/2000/svg"
   xmlns="http://www.w3.org/2000/svg"
   xmlns:sodipodi="http://sodipodi.sourceforge.net/DTD/sodipodi-0.dtd"
   xmlns:inkscape="http://www.inkscape.org/namespaces/inkscape"
   sodipodi:docname="logo.svg"
   inkscape:version="1.0 (4035a4fb49, 2020-05-01)"
   id="svg8"
   version="1.1"
   viewBox="0 0 218.88988 27.597956"
   height="27.597956mm"
   width="218.88988mm">
  <defs
     id="defs2" />
  <sodipodi:namedview
     inkscape:window-maximized="1"
     inkscape:window-y="-12"
     inkscape:window-x="4468"
     inkscape:window-height="2050"
     inkscape:window-width="3840"
     fit-margin-bottom="0"
     fit-margin-right="0"
     fit-margin-left="0"
     fit-margin-top="0"
     showgrid="false"
     inkscape:document-rotation="0"
     inkscape:current-layer="layer1"
     inkscape:document-units="mm"
     inkscape:cy="182.13925"
     inkscape:cx="417.54097"
     inkscape:zoom="1"
     inkscape:pageshadow="2"
     inkscape:pageopacity="1"
     borderopacity="1.0"
     bordercolor="#666666"
     pagecolor="#000000"
     id="base" />
  <metadata
     id="metadata5">
    <rdf:RDF>
      <cc:Work
         rdf:about="">
        <dc:format>image/svg+xml</dc:format>
        <dc:type
           rdf:resource="http://purl.org/dc/dcmitype/StillImage" />
        <dc:title></dc:title>
      </cc:Work>
    </rdf:RDF>
  </metadata>
  <g
     transform="translate(-12.214672,-15.997837)"
     id="layer1"
     inkscape:groupmode="layer"
     inkscape:label="Layer 1">
    <g
       style="font-style:normal;font-variant:normal;font-weight:normal;font-stretch:normal;font-size:27.2749px;line-height:1.25;font-family:Khand;-inkscape-font-specification:'Khand, Normal';font-variant-ligatures:normal;font-variant-caps:normal;font-variant-numeric:normal;font-variant-east-asian:normal;letter-spacing:0px;word-spacing:0px;fill:#00c78f;fill-opacity:1;stroke:none;stroke-width:0.681871"
       id="text835"
       aria-label="@rezonant/devtools">
      <path
         id="path837"
         style="font-style:normal;font-variant:normal;font-weight:normal;font-stretch:normal;font-size:27.2749px;font-family:Khand;-inkscape-font-specification:'Khand, Normal';font-variant-ligatures:normal;font-variant-caps:normal;font-variant-numeric:normal;font-variant-east-asian:normal;fill:#00c78f;fill-opacity:1;stroke-width:0.681871"
         d="m 34.962614,41.743212 h -2.345642 q -5.264056,0 -7.555147,-2.700215 -2.263817,-2.672941 -2.263817,-7.827897 0,-5.182231 2.318367,-7.882446 2.318366,-2.700215 7.555147,-2.700215 5.264056,0 7.527872,2.591115 2.263817,2.591116 2.263817,7.718797 0,3.682112 -1.118271,5.318606 -1.090996,1.636494 -3.245713,1.636494 -2.127442,0 -2.972964,-1.33647 -1.063721,0.845522 -2.891139,0.845522 -3.600287,0 -3.600287,-3.109339 v -0.381849 q 0,-1.418294 0.763697,-2.154717 0.790972,-0.763697 2.345641,-1.254645 l 2.863865,-0.900072 v -1.500119 q 0,-0.927347 -0.436399,-1.418295 -0.409123,-0.490948 -1.636494,-0.490948 -1.200095,0 -3.245713,0.490948 v -1.527395 q 1.609219,-0.436398 3.327538,-0.436398 3.627562,0 3.627562,3.327538 v 6.191402 q 0,1.118271 0.463673,1.636494 0.463674,0.490948 1.581944,0.490948 1.145546,0 1.800144,-1.200095 0.654597,-1.227371 0.654597,-4.22761 0,-4.418534 -1.800143,-6.573251 -1.800143,-2.154717 -6.300502,-2.154717 -4.500359,0 -6.300502,2.263817 -1.800143,2.236542 -1.800143,6.709625 0,4.445809 1.800143,6.709626 1.827418,2.263817 6.300502,2.263817 h 2.318367 z M 30.353155,33.88804 v 0.436399 q 0,1.636494 1.800144,1.636494 0.709147,0 1.309195,-0.190924 0.627323,-0.190925 1.145546,-0.572773 V 31.16055 l -2.372916,0.736423 q -1.036447,0.300024 -1.472845,0.681872 -0.409124,0.381849 -0.409124,1.309195 z" />
      <path
         id="path839"
         style="font-style:normal;font-variant:normal;font-weight:normal;font-stretch:normal;font-size:27.2749px;font-family:Khand;-inkscape-font-specification:'Khand, Normal';font-variant-ligatures:normal;font-variant-caps:normal;font-variant-numeric:normal;font-variant-east-asian:normal;fill:#00c78f;fill-opacity:1;stroke-width:0.681871"
         d="m 51.120862,23.059905 h 0.681872 v 1.854693 h -0.927346 q -0.981897,0 -1.772869,0.518223 -0.245474,0.16365 -1.063721,0.736423 V 38.661148 H 46.10228 V 23.14173 h 1.854693 v 1.17282 q 0.08183,-0.05455 0.409124,-0.300023 0.354574,-0.245475 0.409123,-0.272749 0.08183,-0.05455 0.354574,-0.2182 0.300024,-0.163649 0.436399,-0.190924 0.163649,-0.05455 0.436398,-0.136374 0.409124,-0.136375 1.118271,-0.136375 z" />
      <path
         id="path841"
         style="font-style:normal;font-variant:normal;font-weight:normal;font-stretch:normal;font-size:27.2749px;font-family:Khand;-inkscape-font-specification:'Khand, Normal';font-variant-ligatures:normal;font-variant-caps:normal;font-variant-numeric:normal;font-variant-east-asian:normal;fill:#00c78f;fill-opacity:1;stroke-width:0.681871"
         d="m 53.553868,34.706288 v -7.582423 q 0,-1.936518 1.090996,-3.082064 1.118271,-1.17282 3.354813,-1.17282 2.236541,0 3.300263,1.17282 1.090996,1.145546 1.090996,3.082064 v 4.745833 h -6.927825 v 2.754765 q 0,1.22737 0.763697,1.827418 0.763697,0.600048 2.372916,0.600048 1.60922,0 3.327538,-0.490948 v 1.800143 q -1.363745,0.436399 -3.245713,0.436399 -5.127681,0 -5.127681,-4.091235 z m 1.909243,-4.445809 h 5.073131 v -3.136614 q 0,-2.56384 -2.536565,-2.56384 -2.536566,0 -2.536566,2.56384 z" />
      <path
         id="path843"
         style="font-style:normal;font-variant:normal;font-weight:normal;font-stretch:normal;font-size:27.2749px;font-family:Khand;-inkscape-font-specification:'Khand, Normal';font-variant-ligatures:normal;font-variant-caps:normal;font-variant-numeric:normal;font-variant-east-asian:normal;fill:#00c78f;fill-opacity:1;stroke-width:0.681871"
         d="m 64.506021,23.14173 h 7.500597 v 1.500119 l -5.673179,12.328255 h 5.673179 v 1.691044 h -7.636972 v -1.500119 l 5.591355,-12.328255 h -5.45498 z" />
      <path
         id="path845"
         style="font-style:normal;font-variant:normal;font-weight:normal;font-stretch:normal;font-size:27.2749px;font-family:Khand;-inkscape-font-specification:'Khand, Normal';font-variant-ligatures:normal;font-variant-caps:normal;font-variant-numeric:normal;font-variant-east-asian:normal;fill:#00c78f;fill-opacity:1;stroke-width:0.681871"
         d="m 81.09768,27.123865 q 0,-2.536566 -2.50929,-2.536566 -2.509291,0 -2.509291,2.536566 v 7.555148 q 0,2.56384 2.509291,2.56384 2.50929,0 2.50929,-2.56384 z m -6.927824,-0.02727 q 0,-1.936518 1.090996,-3.082063 1.090996,-1.145546 3.327538,-1.145546 2.236541,0 3.327537,1.145546 1.090996,1.145545 1.090996,3.082063 v 7.609698 q 0,1.936517 -1.090996,3.082063 -1.090996,1.145546 -3.327537,1.145546 -2.236542,0 -3.327538,-1.145546 -1.090996,-1.145546 -1.090996,-3.082063 z" />
      <path
         id="path847"
         style="font-style:normal;font-variant:normal;font-weight:normal;font-stretch:normal;font-size:27.2749px;font-family:Khand;-inkscape-font-specification:'Khand, Normal';font-variant-ligatures:normal;font-variant-caps:normal;font-variant-numeric:normal;font-variant-east-asian:normal;fill:#00c78f;fill-opacity:1;stroke-width:0.681871"
         d="m 88.336612,23.850877 q 1.827418,-0.763697 3.327538,-0.763697 1.527394,0 2.509291,0.954621 0.981896,0.927347 0.981896,2.645666 V 38.661148 H 93.218819 V 26.878391 q 0,-1.991068 -2.018342,-1.991068 -1.281921,0 -2.78204,0.709148 V 38.661148 H 86.481919 V 23.14173 h 1.854693 z" />
      <path
         id="path849"
         style="font-style:normal;font-variant:normal;font-weight:normal;font-stretch:normal;font-size:27.2749px;font-family:Khand;-inkscape-font-specification:'Khand, Normal';font-variant-ligatures:normal;font-variant-caps:normal;font-variant-numeric:normal;font-variant-east-asian:normal;fill:#00c78f;fill-opacity:1;stroke-width:0.681871"
         d="m 99.660384,34.242614 v 0.818247 q 0,1.090996 0.518226,1.609219 0.51822,0.518223 1.96379,0.518223 1.44557,0 2.72749,-1.063721 v -5.100406 l -3.10934,0.872797 q -1.22737,0.354573 -1.66377,0.872797 -0.436396,0.518223 -0.436396,1.472844 z m 2.454736,-11.237259 q 4.63674,0 4.63674,3.954861 v 11.700932 h -1.8547 v -1.118271 q -1.39102,1.227371 -3.32753,1.227371 -3.791215,0 -3.791215,-3.736662 v -0.872797 q 0,-2.836589 3.300265,-3.763936 l 3.81848,-1.063721 v -2.372916 q -0.0273,-1.118271 -0.62732,-1.636494 -0.60005,-0.518223 -2.42746,-0.518223 -1.80015,0 -3.327542,0.545498 v -1.827419 q 1.554672,-0.518223 3.600282,-0.518223 z" />
      <path
         id="path851"
         style="font-style:normal;font-variant:normal;font-weight:normal;font-stretch:normal;font-size:27.2749px;font-family:Khand;-inkscape-font-specification:'Khand, Normal';font-variant-ligatures:normal;font-variant-caps:normal;font-variant-numeric:normal;font-variant-east-asian:normal;fill:#00c78f;fill-opacity:1;stroke-width:0.681871"
         d="m 112.25542,23.850877 q 1.82741,-0.763697 3.32753,-0.763697 1.5274,0 2.5093,0.954621 0.98189,0.927347 0.98189,2.645666 v 11.973681 h -1.93652 V 26.878391 q 0,-1.991068 -2.01834,-1.991068 -1.28192,0 -2.78204,0.709148 v 13.064677 h -1.93652 V 23.14173 h 1.8547 z" />
      <path
         id="path853"
         style="font-style:normal;font-variant:normal;font-weight:normal;font-stretch:normal;font-size:27.2749px;font-family:Khand;-inkscape-font-specification:'Khand, Normal';font-variant-ligatures:normal;font-variant-caps:normal;font-variant-numeric:normal;font-variant-east-asian:normal;fill:#00c78f;fill-opacity:1;stroke-width:0.681871"
         d="m 124.61564,20.332415 v 2.809315 h 3.46391 v 1.718318 h -3.46391 v 10.364463 q 0,0.954621 0.46367,1.39102 0.46367,0.409123 1.4183,0.409123 0.95462,0 1.85469,-0.300024 v 1.772869 q -1.091,0.272749 -2.04562,0.272749 -3.65484,0 -3.65484,-3.463913 V 24.860048 H 120.9608 V 23.14173 h 1.77287 l 0.5455,-2.809315 z" />
      <path
         id="path855"
         style="font-style:normal;font-variant:normal;font-weight:normal;font-stretch:normal;font-size:27.2749px;font-family:Khand;-inkscape-font-specification:'Khand, Normal';font-variant-ligatures:normal;font-variant-caps:normal;font-variant-numeric:normal;font-variant-east-asian:normal;fill:#00c78f;fill-opacity:1;stroke-width:0.681871"
         d="m 136.91705,17.332176 h 1.69104 l -7.25512,24.929259 h -1.71832 z" />
      <path
         id="path857"
         style="font-style:normal;font-variant:normal;font-weight:normal;font-stretch:normal;font-size:27.2749px;font-family:Khand;-inkscape-font-specification:'Khand, Normal';font-variant-ligatures:normal;font-variant-caps:normal;font-variant-numeric:normal;font-variant-east-asian:normal;fill:#00c78f;fill-opacity:1;stroke-width:0.681871"
         d="m 147.46987,24.914598 h -2.23654 q -2.59112,0 -2.59112,2.345642 v 7.446048 q 0,2.291091 2.20927,2.291091 1.63649,0 2.61839,-0.927346 z m 0,-5.891378 h 1.93652 v 19.637928 h -1.88197 v -0.900072 q -1.22737,0.981897 -3.05479,0.981897 -1.82742,0 -2.80931,-1.009172 -0.95463,-1.009171 -0.95463,-2.891139 v -7.609697 q 0,-1.936518 1.14555,-3.000239 1.14555,-1.090996 3.05479,-1.090996 h 2.56384 z" />
      <path
         id="path859"
         style="font-style:normal;font-variant:normal;font-weight:normal;font-stretch:normal;font-size:27.2749px;font-family:Khand;-inkscape-font-specification:'Khand, Normal';font-variant-ligatures:normal;font-variant-caps:normal;font-variant-numeric:normal;font-variant-east-asian:normal;fill:#00c78f;fill-opacity:1;stroke-width:0.681871"
         d="m 152.90483,34.706288 v -7.582423 q 0,-1.936518 1.091,-3.082064 1.11827,-1.17282 3.35481,-1.17282 2.23654,0 3.30026,1.17282 1.091,1.145546 1.091,3.082064 v 4.745833 h -6.92783 v 2.754765 q 0,1.22737 0.7637,1.827418 0.7637,0.600048 2.37292,0.600048 1.60922,0 3.32753,-0.490948 v 1.800143 q -1.36374,0.436399 -3.24571,0.436399 -5.12768,0 -5.12768,-4.091235 z m 1.90924,-4.445809 h 5.07313 v -3.136614 q 0,-2.56384 -2.53656,-2.56384 -2.53657,0 -2.53657,2.56384 z" />
      <path
         id="path861"
         style="font-style:normal;font-variant:normal;font-weight:normal;font-stretch:normal;font-size:27.2749px;font-family:Khand;-inkscape-font-specification:'Khand, Normal';font-variant-ligatures:normal;font-variant-caps:normal;font-variant-numeric:normal;font-variant-east-asian:normal;fill:#00c78f;fill-opacity:1;stroke-width:0.681871"
         d="m 171.27574,23.14173 h 1.96379 l -3.43663,15.519418 h -2.72749 L 163.63877,23.14173 h 1.99107 l 1.50012,7.118749 1.33647,7.036924 q 0.81824,-4.527633 2.80931,-14.155673 z" />
      <path
         id="path863"
         style="font-style:normal;font-variant:normal;font-weight:normal;font-stretch:normal;font-size:27.2749px;font-family:Khand;-inkscape-font-specification:'Khand, Normal';font-variant-ligatures:normal;font-variant-caps:normal;font-variant-numeric:normal;font-variant-east-asian:normal;fill:#00c78f;fill-opacity:1;stroke-width:0.681871"
         d="m 177.51402,20.332415 v 2.809315 h 3.46391 v 1.718318 h -3.46391 v 10.364463 q 0,0.954621 0.46368,1.39102 0.46367,0.409123 1.41829,0.409123 0.95462,0 1.85469,-0.300024 v 1.772869 q -1.09099,0.272749 -2.04561,0.272749 -3.65484,0 -3.65484,-3.463913 V 24.860048 h -1.69104 V 23.14173 h 1.77286 l 0.5455,-2.809315 z" />
      <path
         id="path865"
         style="font-style:normal;font-variant:normal;font-weight:normal;font-stretch:normal;font-size:27.2749px;font-family:Khand;-inkscape-font-specification:'Khand, Normal';font-variant-ligatures:normal;font-variant-caps:normal;font-variant-numeric:normal;font-variant-east-asian:normal;fill:#00c78f;fill-opacity:1;stroke-width:0.681871"
         d="m 190.19728,27.123865 q 0,-2.536566 -2.50929,-2.536566 -2.50929,0 -2.50929,2.536566 v 7.555148 q 0,2.56384 2.50929,2.56384 2.50929,0 2.50929,-2.56384 z m -6.92783,-0.02727 q 0,-1.936518 1.091,-3.082063 1.091,-1.145546 3.32754,-1.145546 2.23654,0 3.32754,1.145546 1.09099,1.145545 1.09099,3.082063 v 7.609698 q 0,1.936517 -1.09099,3.082063 -1.091,1.145546 -3.32754,1.145546 -2.23654,0 -3.32754,-1.145546 -1.091,-1.145546 -1.091,-3.082063 z" />
      <path
         id="path867"
         style="font-style:normal;font-variant:normal;font-weight:normal;font-stretch:normal;font-size:27.2749px;font-family:Khand;-inkscape-font-specification:'Khand, Normal';font-variant-ligatures:normal;font-variant-caps:normal;font-variant-numeric:normal;font-variant-east-asian:normal;fill:#00c78f;fill-opacity:1;stroke-width:0.681871"
         d="m 202.2366,27.123865 q 0,-2.536566 -2.50929,-2.536566 -2.50929,0 -2.50929,2.536566 v 7.555148 q 0,2.56384 2.50929,2.56384 2.50929,0 2.50929,-2.56384 z m -6.92782,-0.02727 q 0,-1.936518 1.09099,-3.082063 1.091,-1.145546 3.32754,-1.145546 2.23654,0 3.32754,1.145546 1.09099,1.145545 1.09099,3.082063 v 7.609698 q 0,1.936517 -1.09099,3.082063 -1.091,1.145546 -3.32754,1.145546 -2.23654,0 -3.32754,-1.145546 -1.09099,-1.145546 -1.09099,-3.082063 z" />
      <path
         id="path869"
         style="font-style:normal;font-variant:normal;font-weight:normal;font-stretch:normal;font-size:27.2749px;font-family:Khand;-inkscape-font-specification:'Khand, Normal';font-variant-ligatures:normal;font-variant-caps:normal;font-variant-numeric:normal;font-variant-east-asian:normal;fill:#00c78f;fill-opacity:1;stroke-width:0.681871"
         d="m 207.62083,19.02322 h 1.93652 v 19.637928 h -1.93652 z" />
      <path
         id="path871"
         style="font-style:normal;font-variant:normal;font-weight:normal;font-stretch:normal;font-size:27.2749px;font-family:Khand;-inkscape-font-specification:'Khand, Normal';font-variant-ligatures:normal;font-variant-caps:normal;font-variant-numeric:normal;font-variant-east-asian:normal;fill:#00c78f;fill-opacity:1;stroke-width:0.681871"
         d="m 212.20259,26.796566 q 0,-1.909243 1.09099,-2.836589 1.091,-0.954622 3.57302,-0.954622 1.52739,0 3.02751,0.463674 v 1.800143 q -1.36375,-0.490948 -3.00024,-0.490948 -1.63649,0 -2.20927,0.490948 -0.57277,0.463673 -0.57277,1.581944 v 0.709148 q 0,0.872796 0.3273,1.33647 0.35457,0.463673 1.28192,0.872797 l 2.34564,1.145545 q 2.45474,1.200096 2.45474,3.327538 v 0.736423 q 0,3.818486 -4.93675,3.818486 -1.8547,0 -3.27299,-0.436399 v -1.800143 q 1.41829,0.490948 3.13661,0.490948 1.74559,0 2.42747,-0.518223 0.70914,-0.545498 0.70914,-1.581944 v -0.545498 q 0,-0.763698 -0.35457,-1.172821 -0.35457,-0.436399 -1.39102,-0.927347 l -2.34564,-1.118271 q -2.29109,-1.090996 -2.29109,-3.463912 z" />
    </g>
  </g>
</svg>
